<svg width="411" height="80" viewBox="0 0 411 80" fill="none" xmlns="http://www.w3.org/2000/svg">
<rect x="10" y="10" width="60" height="60" fill="#E9D6DA"/>
<rect x="12" y="12" width="56" height="56" stroke="#363062" stroke-opacity="0.77" stroke-width="4"/>
<path d="M93.3 62V16.58H102.3V62H93.3ZM124.546 62.72C121.306 62.72 118.346 61.98 115.666 60.5C113.026 59.02 110.906 57 109.306 54.44C107.746 51.84 106.966 48.9 106.966 45.62C106.966 42.3 107.746 39.36 109.306 36.8C110.906 34.24 113.026 32.22 115.666 30.74C118.346 29.26 121.306 28.52 124.546 28.52C127.786 28.52 130.726 29.26 133.366 30.74C136.006 32.22 138.106 34.24 139.666 36.8C141.266 39.36 142.066 42.3 142.066 45.62C142.066 48.9 141.266 51.84 139.666 54.44C138.106 57 136.006 59.02 133.366 60.5C130.726 61.98 127.786 62.72 124.546 62.72ZM124.546 54.62C126.186 54.62 127.606 54.24 128.806 53.48C130.046 52.72 131.006 51.66 131.686 50.3C132.406 48.94 132.766 47.38 132.766 45.62C132.766 43.86 132.406 42.32 131.686 41C131.006 39.64 130.046 38.58 128.806 37.82C127.606 37.02 126.186 36.62 124.546 36.62C122.906 36.62 121.466 37.02 120.226 37.82C118.986 38.58 118.006 39.64 117.286 41C116.606 42.32 116.266 43.86 116.266 45.62C116.266 47.38 116.606 48.94 117.286 50.3C118.006 51.66 118.986 52.72 120.226 53.48C121.466 54.24 122.906 54.62 124.546 54.62ZM156.908 62.72C154.548 62.72 152.508 62.34 150.788 61.58C149.068 60.82 147.748 59.74 146.828 58.34C145.908 56.9 145.448 55.2 145.448 53.24C145.448 51.4 145.868 49.78 146.708 48.38C147.548 46.94 148.828 45.74 150.548 44.78C152.308 43.82 154.488 43.14 157.088 42.74L167.108 41.12V47.72L158.708 49.22C157.428 49.46 156.448 49.88 155.768 50.48C155.088 51.04 154.748 51.86 154.748 52.94C154.748 53.94 155.128 54.72 155.888 55.28C156.648 55.84 157.588 56.12 158.708 56.12C160.188 56.12 161.488 55.8 162.608 55.16C163.728 54.52 164.588 53.66 165.188 52.58C165.828 51.46 166.148 50.24 166.148 48.92V40.4C166.148 39.16 165.648 38.12 164.648 37.28C163.688 36.44 162.368 36.02 160.688 36.02C159.088 36.02 157.668 36.46 156.428 37.34C155.228 38.22 154.348 39.38 153.788 40.82L146.588 37.4C147.228 35.56 148.248 33.98 149.648 32.66C151.048 31.34 152.728 30.32 154.688 29.6C156.648 28.88 158.788 28.52 161.108 28.52C163.868 28.52 166.308 29.02 168.428 30.02C170.548 31.02 172.188 32.42 173.348 34.22C174.548 35.98 175.148 38.04 175.148 40.4V62H166.748V56.72L168.788 56.36C167.828 57.8 166.768 59 165.608 59.96C164.448 60.88 163.148 61.56 161.708 62C160.268 62.48 158.668 62.72 156.908 62.72ZM196.568 62.72C193.368 62.72 190.508 61.96 187.988 60.44C185.468 58.92 183.468 56.86 181.988 54.26C180.548 51.66 179.828 48.78 179.828 45.62C179.828 42.42 180.568 39.54 182.048 36.98C183.528 34.38 185.528 32.32 188.048 30.8C190.568 29.28 193.388 28.52 196.508 28.52C198.908 28.52 201.028 28.98 202.868 29.9C204.748 30.78 206.228 32.04 207.308 33.68L205.928 35.48V16.58H214.928V62H206.528V56L207.368 57.86C206.248 59.46 204.728 60.68 202.808 61.52C200.888 62.32 198.808 62.72 196.568 62.72ZM197.648 54.62C199.288 54.62 200.728 54.24 201.968 53.48C203.208 52.72 204.168 51.66 204.848 50.3C205.568 48.94 205.928 47.38 205.928 45.62C205.928 43.86 205.568 42.3 204.848 40.94C204.168 39.58 203.208 38.52 201.968 37.76C200.728 37 199.288 36.62 197.648 36.62C196.008 36.62 194.528 37.02 193.208 37.82C191.928 38.58 190.928 39.64 190.208 41C189.488 42.32 189.128 43.86 189.128 45.62C189.128 47.38 189.488 48.94 190.208 50.3C190.928 51.66 191.928 52.72 193.208 53.48C194.528 54.24 196.008 54.62 197.648 54.62ZM236.7 62.72C233.22 62.72 230.2 61.96 227.64 60.44C225.08 58.88 223.1 56.8 221.7 54.2C220.3 51.6 219.6 48.72 219.6 45.56C219.6 42.28 220.32 39.36 221.76 36.8C223.24 34.24 225.22 32.22 227.7 30.74C230.18 29.26 232.98 28.52 236.1 28.52C238.7 28.52 241 28.94 243 29.78C245 30.58 246.68 31.72 248.04 33.2C249.44 34.68 250.5 36.4 251.22 38.36C251.94 40.28 252.3 42.38 252.3 44.66C252.3 45.3 252.26 45.94 252.18 46.58C252.14 47.18 252.04 47.7 251.88 48.14H227.34V41.54H246.78L242.52 44.66C242.92 42.94 242.9 41.42 242.46 40.1C242.02 38.74 241.24 37.68 240.12 36.92C239.04 36.12 237.7 35.72 236.1 35.72C234.54 35.72 233.2 36.1 232.08 36.86C230.96 37.62 230.12 38.74 229.56 40.22C229 41.7 228.78 43.5 228.9 45.62C228.74 47.46 228.96 49.08 229.56 50.48C230.16 51.88 231.08 52.98 232.32 53.78C233.56 54.54 235.06 54.92 236.82 54.92C238.42 54.92 239.78 54.6 240.9 53.96C242.06 53.32 242.96 52.44 243.6 51.32L250.8 54.74C250.16 56.34 249.14 57.74 247.74 58.94C246.38 60.14 244.76 61.08 242.88 61.76C241 62.4 238.94 62.72 236.7 62.72ZM256.999 62V29.24H265.399V37.1L264.799 35.96C265.519 33.2 266.699 31.34 268.339 30.38C270.019 29.38 271.999 28.88 274.279 28.88H276.199V36.68H273.379C271.179 36.68 269.399 37.36 268.039 38.72C266.679 40.04 265.999 41.92 265.999 44.36V62H256.999Z" fill="#827398"/>
<path d="M295.984 62.72C292.384 62.72 289.244 61.88 286.564 60.2C283.924 58.48 282.124 56.18 281.164 53.3L287.764 50.18C288.604 51.94 289.744 53.32 291.184 54.32C292.624 55.32 294.224 55.82 295.984 55.82C297.264 55.82 298.244 55.56 298.924 55.04C299.604 54.52 299.944 53.8 299.944 52.88C299.944 52.4 299.824 52 299.584 51.68C299.344 51.32 298.984 51 298.504 50.72C298.024 50.44 297.424 50.2 296.704 50L291.124 48.44C288.444 47.68 286.384 46.46 284.944 44.78C283.504 43.06 282.784 41.04 282.784 38.72C282.784 36.68 283.304 34.9 284.344 33.38C285.384 31.86 286.844 30.68 288.724 29.84C290.604 28.96 292.764 28.52 295.204 28.52C298.404 28.52 301.204 29.28 303.604 30.8C306.044 32.28 307.764 34.38 308.764 37.1L302.104 40.22C301.624 38.86 300.744 37.78 299.464 36.98C298.224 36.14 296.804 35.72 295.204 35.72C294.044 35.72 293.124 35.96 292.444 36.44C291.804 36.92 291.484 37.58 291.484 38.42C291.484 38.86 291.604 39.26 291.844 39.62C292.084 39.98 292.464 40.3 292.984 40.58C293.544 40.86 294.224 41.12 295.024 41.36L300.244 42.92C302.964 43.72 305.044 44.94 306.484 46.58C307.924 48.18 308.644 50.16 308.644 52.52C308.644 54.56 308.104 56.34 307.024 57.86C305.984 59.38 304.524 60.58 302.644 61.46C300.764 62.3 298.544 62.72 295.984 62.72ZM313.423 62V16.58H322.423V35.72L321.343 34.28C322.103 32.32 323.323 30.88 325.003 29.96C326.723 29 328.723 28.52 331.003 28.52C333.483 28.52 335.643 29.04 337.483 30.08C339.363 31.12 340.823 32.58 341.863 34.46C342.903 36.3 343.423 38.46 343.423 40.94V62H334.423V42.86C334.423 41.58 334.163 40.48 333.643 39.56C333.163 38.64 332.463 37.92 331.543 37.4C330.663 36.88 329.623 36.62 328.423 36.62C327.263 36.62 326.223 36.88 325.303 37.4C324.383 37.92 323.663 38.64 323.143 39.56C322.663 40.48 322.423 41.58 322.423 42.86V62H313.423ZM348.741 62V29.24H357.741V62H348.741ZM348.741 26.3V17.3H357.741V26.3H348.741ZM363.727 74V29.24H372.127V35.48L371.347 33.68C372.427 32.04 373.887 30.78 375.727 29.9C377.607 28.98 379.747 28.52 382.147 28.52C385.267 28.52 388.087 29.28 390.607 30.8C393.127 32.32 395.127 34.38 396.607 36.98C398.087 39.54 398.827 42.42 398.827 45.62C398.827 48.78 398.087 51.66 396.607 54.26C395.167 56.86 393.187 58.92 390.667 60.44C388.147 61.96 385.287 62.72 382.087 62.72C379.847 62.72 377.767 62.32 375.847 61.52C373.967 60.68 372.447 59.46 371.287 57.86L372.727 56V74H363.727ZM381.007 54.62C382.687 54.62 384.167 54.24 385.447 53.48C386.727 52.72 387.727 51.66 388.447 50.3C389.167 48.94 389.527 47.38 389.527 45.62C389.527 43.86 389.167 42.32 388.447 41C387.727 39.64 386.727 38.58 385.447 37.82C384.167 37.02 382.687 36.62 381.007 36.62C379.407 36.62 377.967 37 376.687 37.76C375.447 38.52 374.467 39.58 373.747 40.94C373.067 42.3 372.727 43.86 372.727 45.62C372.727 47.38 373.067 48.94 373.747 50.3C374.467 51.66 375.447 52.72 376.687 53.48C377.967 54.24 379.407 54.62 381.007 54.62Z" fill="#4D4C7C"/>
<path d="M58.8137 44.6499C48.2915 65.392 19.2915 59.392 21.6678 40.9326L25.7915 41.3452L27.5 30.5L31.7915 32.8921L30.7915 41.8456L58.8137 44.6499Z" fill="#4D4C7C"/>
<ellipse cx="35" cy="28" rx="3" ry="5" fill="#827398"/>
<ellipse cx="43.5" cy="28" rx="3.5" ry="6" fill="#827398"/>
<ellipse cx="53" cy="28" rx="4" ry="7" fill="#827398"/>
</svg>
