<?xml version="1.0" encoding="UTF-8" standalone="no"?>
<!DOCTYPE svg PUBLIC "-//W3C//DTD SVG 1.1//EN" "http://www.w3.org/Graphics/SVG/1.1/DTD/svg11.dtd">
<svg width="100%" height="100%" viewBox="0 0 800 800" version="1.1" xmlns="http://www.w3.org/2000/svg" xmlns:xlink="http://www.w3.org/1999/xlink" xml:space="preserve" xmlns:serif="http://www.serif.com/" style="fill-rule:evenodd;clip-rule:evenodd;stroke-linecap:round;stroke-linejoin:round;">
    <path d="M385.567,329.65C408.317,296.708 403.8,252.123 374.9,224.417C345.597,196.269 300.78,191.976 266.666,214.05C252.661,223.103 241.671,236.123 235.099,251.45C228.622,266.627 226.925,283.417 230.233,299.583C233.555,315.824 241.685,330.69 253.566,342.25C265.674,353.953 280.929,361.877 297.466,365.05C314.118,368.3 331.354,366.67 347.1,360.35C362.66,354.123 376.04,343.443 385.567,329.65Z" style="fill:rgb(234,214,218);stroke:rgb(77,76,124);stroke-width:50px;"/>
    <path d="M414.433,596.317C391.68,563.373 396.2,518.79 425.1,491.083C454.403,462.937 499.22,458.643 533.333,480.717C547.34,489.77 558.327,502.79 564.9,518.117C571.377,533.293 573.073,550.083 569.767,566.25C566.443,582.49 558.313,597.357 546.433,608.917C534.327,620.62 519.07,628.543 502.533,631.717C485.91,634.937 468.713,633.293 453,626.983C437.407,620.78 423.99,610.113 414.433,596.317Z" style="fill:rgb(234,214,218);stroke:rgb(77,76,124);stroke-width:50px;"/>
    <path d="M400,258.35C386.193,258.35 375,269.542 375,283.35C375,297.157 386.193,308.35 400,308.35L400,258.35ZM633.333,308.35C647.14,308.35 658.333,297.157 658.333,283.35C658.333,269.542 647.14,258.35 633.333,258.35L633.333,308.35ZM228.567,308.35C242.374,308.35 253.567,297.157 253.567,283.35C253.567,269.542 242.374,258.35 228.567,258.35L228.567,308.35ZM166.667,258.35C152.86,258.35 141.667,269.542 141.667,283.35C141.667,297.157 152.86,308.35 166.667,308.35L166.667,258.35ZM400,575.017C413.807,575.017 425,563.823 425,550.017C425,536.21 413.807,525.017 400,525.017L400,575.017ZM166.667,525.017C152.86,525.017 141.667,536.21 141.667,550.017C141.667,563.823 152.86,575.017 166.667,575.017L166.667,525.017ZM571.433,525.017C557.627,525.017 546.433,536.21 546.433,550.017C546.433,563.823 557.627,575.017 571.433,575.017L571.433,525.017ZM633.333,575.017C647.14,575.017 658.333,563.823 658.333,550.017C658.333,536.21 647.14,525.017 633.333,525.017L633.333,575.017ZM400,308.35L633.333,308.35L633.333,258.35L400,258.35L400,308.35ZM228.567,258.35L166.667,258.35L166.667,308.35L228.567,308.35L228.567,258.35ZM400,525.017L166.667,525.017L166.667,575.017L400,575.017L400,525.017ZM571.433,575.017L633.333,575.017L633.333,525.017L571.433,525.017L571.433,575.017Z" style="fill:rgb(77,76,124);fill-rule:nonzero;"/>
</svg>
