<?xml version="1.0" encoding="utf-8"?><!-- Uploaded to: SVG Repo, www.svgrepo.com, Generator: SVG Repo Mixer Tools -->
<svg width="800px" height="800px" viewBox="0 0 24 24" fill="none" xmlns="http://www.w3.org/2000/svg">
<path fill-rule="evenodd" clip-rule="evenodd" d="M11.567 9.8895C12.2495 8.90124 12.114 7.5637 11.247 6.7325C10.3679 5.88806 9.02339 5.75928 7.99998 6.4215C7.57983 6.69308 7.25013 7.0837 7.05298 7.5435C6.85867 7.99881 6.80774 8.50252 6.90698 8.9875C7.00665 9.47472 7.25054 9.92071 7.60698 10.2675C7.97021 10.6186 8.42786 10.8563 8.92398 10.9515C9.42353 11.049 9.94062 11.0001 10.413 10.8105C10.8798 10.6237 11.2812 10.3033 11.567 9.8895Z" stroke="#000000" stroke-width="1.5" stroke-linecap="round" stroke-linejoin="round"/>
<path fill-rule="evenodd" clip-rule="evenodd" d="M12.433 17.8895C11.7504 16.9012 11.886 15.5637 12.753 14.7325C13.6321 13.8881 14.9766 13.7593 16 14.4215C16.4202 14.6931 16.7498 15.0837 16.947 15.5435C17.1413 15.9988 17.1922 16.5025 17.093 16.9875C16.9933 17.4747 16.7494 17.9207 16.393 18.2675C16.0298 18.6186 15.5721 18.8563 15.076 18.9515C14.5773 19.0481 14.0614 18.9988 13.59 18.8095C13.1222 18.6234 12.7197 18.3034 12.433 17.8895V17.8895Z" stroke="#000000" stroke-width="1.5" stroke-linecap="round" stroke-linejoin="round"/>
<path d="M12 7.75049C11.5858 7.75049 11.25 8.08627 11.25 8.50049C11.25 8.9147 11.5858 9.25049 12 9.25049V7.75049ZM19 9.25049C19.4142 9.25049 19.75 8.9147 19.75 8.50049C19.75 8.08627 19.4142 7.75049 19 7.75049V9.25049ZM6.857 9.25049C7.27121 9.25049 7.607 8.9147 7.607 8.50049C7.607 8.08627 7.27121 7.75049 6.857 7.75049V9.25049ZM5 7.75049C4.58579 7.75049 4.25 8.08627 4.25 8.50049C4.25 8.9147 4.58579 9.25049 5 9.25049V7.75049ZM12 17.2505C12.4142 17.2505 12.75 16.9147 12.75 16.5005C12.75 16.0863 12.4142 15.7505 12 15.7505V17.2505ZM5 15.7505C4.58579 15.7505 4.25 16.0863 4.25 16.5005C4.25 16.9147 4.58579 17.2505 5 17.2505V15.7505ZM17.143 15.7505C16.7288 15.7505 16.393 16.0863 16.393 16.5005C16.393 16.9147 16.7288 17.2505 17.143 17.2505V15.7505ZM19 17.2505C19.4142 17.2505 19.75 16.9147 19.75 16.5005C19.75 16.0863 19.4142 15.7505 19 15.7505V17.2505ZM12 9.25049H19V7.75049H12V9.25049ZM6.857 7.75049H5V9.25049H6.857V7.75049ZM12 15.7505H5V17.2505H12V15.7505ZM17.143 17.2505H19V15.7505H17.143V17.2505Z" fill="#000000"/>
</svg>