<?xml version="1.0" encoding="UTF-8" standalone="no"?>
<!DOCTYPE svg PUBLIC "-//W3C//DTD SVG 1.1//EN" "http://www.w3.org/Graphics/SVG/1.1/DTD/svg11.dtd">
<svg width="100%" height="100%" viewBox="0 0 800 800" version="1.1" xmlns="http://www.w3.org/2000/svg" xmlns:xlink="http://www.w3.org/1999/xlink" xml:space="preserve" xmlns:serif="http://www.serif.com/" style="fill-rule:evenodd;clip-rule:evenodd;stroke-linecap:round;stroke-linejoin:round;">
    <path d="M206.667,633.333L593.333,633.333C630.67,633.333 649.34,633.333 663.6,626.067C676.143,619.677 686.343,609.477 692.733,596.933C700,582.673 700,564.003 700,526.667L700,273.333C700,235.997 700,217.328 692.733,203.067C686.343,190.523 676.143,180.324 663.6,173.933C649.34,166.667 630.67,166.667 593.333,166.667L206.667,166.667C169.33,166.667 150.661,166.667 136.401,173.933C123.856,180.324 113.658,190.523 107.266,203.067C100,217.328 100,235.996 100,273.333L100,526.667C100,564.003 100,582.673 107.266,596.933C113.658,609.477 123.856,619.677 136.401,626.067C150.661,633.333 169.33,633.333 206.667,633.333Z" style="fill:rgb(233,214,218);fill-rule:nonzero;stroke:rgb(77,76,124);stroke-width:66.67px;"/>
    <path d="M466.667,466.667L566.667,466.667" style="fill:none;fill-rule:nonzero;stroke:rgb(77,76,124);stroke-width:66.67px;"/>
    <path d="M466.667,333.333L566.667,333.333" style="fill:none;fill-rule:nonzero;stroke:rgb(77,76,124);stroke-width:66.67px;"/>
    <path d="M300,316.667L300,283.333" style="fill:none;fill-rule:nonzero;stroke:rgb(77,76,124);stroke-width:66.67px;"/>
    <path d="M300,316.667L366.67,316.667" style="fill:none;fill-rule:nonzero;stroke:rgb(77,76,124);stroke-width:66.67px;"/>
    <path d="M300,316.667C240.039,316.665 233.395,331.074 233.337,361.083C233.278,391.093 233.336,400 300.003,400C366.67,400 366.67,406.85 366.67,438.89C366.67,462.967 366.67,483.333 300.003,483.333" style="fill:none;fill-rule:nonzero;stroke:rgb(77,76,124);stroke-width:66.67px;"/>
    <path d="M300.003,483.333L300,516.667" style="fill:none;fill-rule:nonzero;stroke:rgb(77,76,124);stroke-width:66.67px;"/>
    <path d="M300.003,483.333L233.337,483.333" style="fill:none;fill-rule:nonzero;stroke:rgb(77,76,124);stroke-width:66.67px;"/>
</svg>
