<?xml version="1.0" encoding="UTF-8" standalone="no"?>
<!DOCTYPE svg PUBLIC "-//W3C//DTD SVG 1.1//EN" "http://www.w3.org/Graphics/SVG/1.1/DTD/svg11.dtd">
<svg width="100%" height="100%" viewBox="0 0 800 800" version="1.1" xmlns="http://www.w3.org/2000/svg" xmlns:xlink="http://www.w3.org/1999/xlink" xml:space="preserve" xmlns:serif="http://www.serif.com/" style="fill-rule:evenodd;clip-rule:evenodd;stroke-linejoin:round;stroke-miterlimit:2;">
    <path d="M408.7,34.487C423.237,38.418 433.333,51.606 433.333,66.666L433.333,299.999L633.333,299.999C645.27,299.999 656.293,306.38 662.237,316.73C668.183,327.08 668.14,339.817 662.127,350.127L428.793,750.127C421.203,763.137 405.837,769.44 391.3,765.51C376.763,761.58 366.667,748.39 366.667,733.333L366.667,500L166.667,500C154.731,500 143.707,493.617 137.762,483.267C131.817,472.917 131.86,460.18 137.874,449.87L371.207,49.87C378.797,36.862 394.163,30.557 408.7,34.487ZM224.701,433.333L400,433.333C418.41,433.333 433.333,448.257 433.333,466.667L433.333,610.033L575.3,366.667L400,366.667C381.59,366.667 366.667,351.743 366.667,333.332L366.667,189.963L224.701,433.333Z" style="fill:rgb(77,76,124);"/>
    <g transform="matrix(1,0,0,1,-57.8254,-0.000724651)">
        <path d="M282.526,433.335L457.825,433.335C476.235,433.335 491.158,448.258 491.158,466.668L491.158,610.035L633.125,366.668L457.825,366.668C439.415,366.668 424.491,351.745 424.491,333.334L424.491,189.964L282.526,433.335Z" style="fill:rgb(233,214,218);"/>
    </g>
</svg>
