<?xml version="1.0" encoding="UTF-8" standalone="no"?>
<!DOCTYPE svg PUBLIC "-//W3C//DTD SVG 1.1//EN" "http://www.w3.org/Graphics/SVG/1.1/DTD/svg11.dtd">
<svg width="100%" height="100%" viewBox="0 0 800 800" version="1.1" xmlns="http://www.w3.org/2000/svg" xmlns:xlink="http://www.w3.org/1999/xlink" xml:space="preserve" xmlns:serif="http://www.serif.com/" style="fill-rule:evenodd;clip-rule:evenodd;stroke-linejoin:round;stroke-miterlimit:2;">
    <path d="M466.667,200C448.257,200 433.333,214.924 433.333,233.333C433.333,251.743 448.257,266.667 466.667,266.667L466.667,200ZM333.333,600C351.743,600 366.667,585.077 366.667,566.667C366.667,548.257 351.743,533.333 333.333,533.333L333.333,600ZM466.667,533.333C448.257,533.333 433.333,548.257 433.333,566.667C433.333,585.077 448.257,600 466.667,600L466.667,533.333ZM266.667,366.667C248.257,366.667 233.333,381.59 233.333,400C233.333,418.41 248.257,433.333 266.667,433.333L266.667,366.667ZM123.57,76.43C110.553,63.412 89.447,63.412 76.43,76.43C63.412,89.447 63.412,110.553 76.43,123.57L123.57,76.43ZM676.43,723.57C689.447,736.587 710.553,736.587 723.57,723.57C736.587,710.553 736.587,689.447 723.57,676.43L676.43,723.57ZM647.05,469.66C637.413,485.347 642.32,505.877 658.007,515.51C673.693,525.147 694.22,520.24 703.857,504.553L647.05,469.66ZM400,433.333C418.41,433.333 433.333,418.41 433.333,400C433.333,381.59 418.41,366.667 400,366.667L400,433.333ZM236.125,236.125L259.696,212.555L236.125,236.125ZM266.667,533.333C193.029,533.333 133.333,473.637 133.333,400L66.667,400C66.667,510.457 156.21,600 266.667,600L266.667,533.333ZM533.333,266.667C606.97,266.667 666.667,326.362 666.667,400L733.333,400C733.333,289.543 643.79,200 533.333,200L533.333,266.667ZM466.667,266.667L533.333,266.667L533.333,200L466.667,200L466.667,266.667ZM333.333,533.333L266.667,533.333L266.667,600L333.333,600L333.333,533.333ZM533.333,533.333L466.667,533.333L466.667,600L533.333,600L533.333,533.333ZM666.667,400C666.667,425.593 659.487,449.41 647.05,469.66L703.857,504.553C722.557,474.107 733.333,438.26 733.333,400L666.667,400ZM266.667,433.333L400,433.333L400,366.667L266.667,366.667L266.667,433.333ZM76.43,123.57L212.555,259.696L259.696,212.555L123.57,76.43L76.43,123.57ZM230.055,203.349C137.082,220.568 66.667,302.025 66.667,400L133.333,400C133.333,334.743 180.246,280.374 242.195,268.901L230.055,203.349ZM212.555,259.696L540.303,587.443L587.443,540.303L259.696,212.555L212.555,259.696ZM540.303,587.443L676.43,723.57L723.57,676.43L587.443,540.303L540.303,587.443ZM557.803,531.1C549.897,532.563 541.72,533.333 533.333,533.333L533.333,600C545.81,600 558.05,598.853 569.943,596.65L557.803,531.1Z" style="fill:rgb(77,76,124);fill-rule:nonzero;"/>
</svg>
