<?xml version="1.0" encoding="UTF-8" standalone="no"?>
<!DOCTYPE svg PUBLIC "-//W3C//DTD SVG 1.1//EN" "http://www.w3.org/Graphics/SVG/1.1/DTD/svg11.dtd">
<svg width="100%" height="100%" viewBox="0 0 800 800" version="1.1" xmlns="http://www.w3.org/2000/svg" xmlns:xlink="http://www.w3.org/1999/xlink" xml:space="preserve" xmlns:serif="http://www.serif.com/" style="fill-rule:evenodd;clip-rule:evenodd;stroke-linecap:round;stroke-linejoin:round;">
    <path d="M666.667,600C666.667,655.23 621.897,700 566.667,700C511.437,700 466.667,655.23 466.667,600C466.667,544.77 511.437,500 566.667,500C621.897,500 666.667,544.77 666.667,600Z" style="fill:rgb(233,214,218);fill-rule:nonzero;stroke:rgb(77,76,124);stroke-width:66.67px;"/>
    <path d="M493.62,656.843L637.567,544.89" style="fill:none;fill-rule:nonzero;stroke:rgb(77,76,124);stroke-width:66.67px;"/>
    <path d="M366.667,500C337.277,500 309.364,493.66 284.227,482.273C266.81,474.383 258.101,470.437 253.266,469.073C248.24,467.657 245.328,467.143 240.12,466.753C235.11,466.38 231.36,466.667 223.858,467.24C220.79,467.473 218.083,467.803 215.519,468.267C174.481,475.697 142.362,507.813 134.933,548.853C133.333,557.687 133.333,568.283 133.333,589.47L133.333,646.667C133.333,665.337 133.333,674.67 136.966,681.8C140.162,688.073 145.262,693.17 151.534,696.367C158.664,700 167.998,700 186.667,700L366.667,700" style="fill:none;fill-rule:nonzero;stroke:rgb(77,76,124);stroke-width:66.67px;"/>
    <path d="M500,233.333C500,306.971 440.303,366.667 366.667,366.667C293.029,366.667 233.333,306.971 233.333,233.333C233.333,159.695 293.029,100 366.667,100C440.303,100 500,159.695 500,233.333Z" style="fill:rgb(233,214,218);fill-rule:nonzero;stroke:rgb(77,76,124);stroke-width:66.67px;"/>
</svg>
