<?xml version="1.0" encoding="utf-8"?><!-- Uploaded to: SVG Repo, www.svgrepo.com, Generator: SVG Repo Mixer Tools -->
<svg width="800px" height="800px" viewBox="0 0 24 24" fill="none" xmlns="http://www.w3.org/2000/svg">
<path d="M14.8086 19.7053L19.127 16.3467M11 15C10.1183 15 9.28093 14.8098 8.52682 14.4682C8.00429 14.2315 7.74302 14.1131 7.59797 14.0722C7.4472 14.0297 7.35983 14.0143 7.20361 14.0026C7.05331 13.9914 6.94079 14 6.71575 14.0172C6.6237 14.0242 6.5425 14.0341 6.46558 14.048C5.23442 14.2709 4.27087 15.2344 4.04798 16.4656C4 16.7306 4 17.0485 4 17.6841V19.4C4 19.9601 4 20.2401 4.10899 20.454C4.20487 20.6422 4.35785 20.7951 4.54601 20.891C4.75992 21 5.03995 21 5.6 21H11M20 18C20 19.6569 18.6569 21 17 21C15.3431 21 14 19.6569 14 18C14 16.3431 15.3431 15 17 15C18.6569 15 20 16.3431 20 18ZM15 7C15 9.20914 13.2091 11 11 11C8.79086 11 7 9.20914 7 7C7 4.79086 8.79086 3 11 3C13.2091 3 15 4.79086 15 7Z" stroke="#000000" stroke-width="2" stroke-linecap="round" stroke-linejoin="round"/>
</svg>