<?xml version="1.0" encoding="UTF-8" standalone="no"?>
<!DOCTYPE svg PUBLIC "-//W3C//DTD SVG 1.1//EN" "http://www.w3.org/Graphics/SVG/1.1/DTD/svg11.dtd">
<svg width="100%" height="100%" viewBox="0 0 800 800" version="1.1" xmlns="http://www.w3.org/2000/svg" xmlns:xlink="http://www.w3.org/1999/xlink" xml:space="preserve" xmlns:serif="http://www.serif.com/" style="fill-rule:evenodd;clip-rule:evenodd;stroke-linejoin:round;stroke-miterlimit:2;">
    <g transform="matrix(1,0,0,1,-151.84,-66.1079)">
        <path d="M539.159,166.733C440.462,172.559 348.848,217.436 300.183,306.412C293.727,318.214 288.028,330.793 283.167,344.16C251.977,429.937 252.302,501.23 272.095,559.57C291.971,618.153 332.6,666.96 387.622,705.473C423.308,730.453 472.403,751.457 524.479,761.29C576.646,771.143 629.109,769.307 672.793,751.83C695.439,742.773 710.766,726.44 712.323,701.533C713.859,676.927 704.403,645.78 688.693,614.353C663.969,564.907 680.313,517.17 706.223,482.097C731.846,447.413 770.023,419.753 803.599,402.967C826.059,391.736 837.663,372.651 840.829,350.895C844.126,328.232 837.943,303.656 824.883,285.7C766.386,205.272 652.149,160.063 539.159,166.733Z" style="fill:rgb(233,214,218);"/>
    </g>
    <path d="M466.667,416.67C466.667,444.283 444.28,466.67 416.667,466.67C389.053,466.67 366.667,444.283 366.667,416.67C366.667,389.057 389.053,366.67 416.667,366.67C444.28,366.67 466.667,389.057 466.667,416.67Z" style="fill:rgb(77,76,124);fill-rule:nonzero;"/>
    <path d="M550,333.337C577.613,333.337 600,310.951 600,283.337C600,255.723 577.613,233.337 550,233.337C522.387,233.337 500,255.723 500,283.337C500,310.951 522.387,333.337 550,333.337Z" style="fill:rgb(77,76,124);fill-rule:nonzero;"/>
    <path d="M433.333,216.67C433.333,244.285 410.947,266.67 383.333,266.67C355.72,266.67 333.333,244.285 333.333,216.67C333.333,189.056 355.72,166.67 383.333,166.67C410.947,166.67 433.333,189.056 433.333,216.67Z" style="fill:rgb(77,76,124);fill-rule:nonzero;"/>
    <path d="M250,400.003C277.615,400.003 300,377.617 300,350.003C300,322.39 277.615,300.004 250,300.004C222.386,300.004 200,322.39 200,350.003C200,377.617 222.386,400.003 250,400.003Z" style="fill:rgb(77,76,124);fill-rule:nonzero;"/>
    <path d="M466.667,583.337C466.667,610.95 444.28,633.337 416.667,633.337C389.053,633.337 366.667,610.95 366.667,583.337C366.667,555.723 389.053,533.337 416.667,533.337C444.28,533.337 466.667,555.723 466.667,583.337Z" style="fill:rgb(77,76,124);fill-rule:nonzero;"/>
    <path d="M250,566.67C277.615,566.67 300,544.283 300,516.67C300,489.057 277.615,466.67 250,466.67C222.386,466.67 200,489.057 200,516.67C200,544.283 222.386,566.67 250,566.67Z" style="fill:rgb(77,76,124);fill-rule:nonzero;"/>
    <path d="M383.39,34.072C513.497,26.392 652.12,77.481 726.957,180.377C750.28,212.441 760.76,254.543 754.963,294.385C749.033,335.133 725.78,374.383 681.573,396.483C654.63,409.957 625.77,431.553 608.003,455.6C590.527,479.26 587.13,499.723 596.48,518.43C614.103,553.673 629.647,597.523 627.02,639.583C625.663,661.25 619.427,683.153 605.547,702.663C591.627,722.223 571.493,737.307 545.713,747.62C486.983,771.11 420.93,772.143 360.27,760.69C299.526,749.217 241.495,724.737 197.552,693.98C133.523,649.16 82.485,589.63 57.124,514.88C31.68,439.883 33.197,352.837 68.675,255.268C121.452,110.124 252.083,41.823 383.39,34.072ZM387.32,100.623C288.622,106.449 197.009,151.326 148.344,240.302C141.888,252.104 136.188,264.683 131.328,278.05C100.138,363.827 100.463,435.12 120.256,493.46C140.132,552.043 180.761,600.85 235.782,639.363C271.468,664.343 320.563,685.347 372.64,695.18C424.807,705.033 477.27,703.197 520.953,685.72C543.6,676.663 558.927,660.33 560.483,635.423C562.02,610.817 552.563,579.67 536.853,548.243C512.13,498.797 528.473,451.06 554.383,415.987C580.007,381.303 618.183,353.643 651.76,336.857C674.22,325.626 685.823,306.541 688.99,284.785C692.287,262.122 686.103,237.546 673.043,219.59C614.547,139.162 500.31,93.953 387.32,100.623Z" style="fill:rgb(77,76,124);"/>
</svg>
